{"title":"Star Wars:Episode I:The Phantom Menace(1999)MPEG-4[DaScubaDude]","uid":14140782,"size":1366910923,"categoryP":"video","categoryS":"movies","magnet":"?xt=urn:btih:c027fa30c147aed87ec949067dad968ece3d46a6&amp;dn=Star+Wars%3AEpisode+I%3AThe+Phantom+Menace%281999%29MPEG-4%5BDaScubaDude%5D&amp;tr=udp%3A%2F%2Ftracker.leechers-paradise.org%3A6969&amp;tr=udp%3A%2F%2Fzer0day.ch%3A1337&amp;tr=udp%3A%2F%2Fopen.demonii.com%3A1337&amp;tr=udp%3A%2F%2Ftracker.coppersurfer.tk%3A6969&amp;tr=udp%3A%2F%2Fexodus.desync.com%3A6969","seeders":0,"leechers":1,"uploader":"dascuba","files":1,"time":1459604730,"description":"Star Wars: Episode I - The Phantom Menace (1999)\r\nPG | 2h 16min | Action, Adventure, Fantasy | 19 May 1999 (USA)\r\n\r\nTwo Jedi Knights escape a hostile blockade to find allies and come across a young boy who may bring balance to the Force, but the long dormant Sith resurface to reclaim their old glory.\r\nDirector: George Lucas\r\nWriter: George Lucas\r\nStars: Ewan McGregor, Liam Neeson, Natalie Portman \r\n\r\nGeneral\r\nComplete name                            : Star WarsIPHANTOM_MENACE_Title1.mp4\r\nFormat                                   : MPEG-4\r\nFormat profile                           : Base Media\r\nCodec ID                                 : isom\r\nFile size                                : 1.27 GiB\r\nDuration                                 : 2h 16mn\r\nOverall bit rate                         : 1 339 Kbps\r\nMovie name                               : PHANTOM_MENACE\r\nGenre                                    : Science_Fiction\r\nWriting application                      : Lavf54.6.100\r\n\r\nVideo\r\nID                                       : 1\r\nFormat                                   : AVC\r\nFormat/Info                              : Advanced Video Codec\r\nFormat profile                           :   \r\nFormat settings, CABAC                   : No\r\nFormat settings, ReFrames                : 6 frames\r\nCodec ID                                 : avc1\r\nCodec ID/Info                            : Advanced Video Coding\r\nDuration                                 : 2h 16mn\r\nBit rate                                 : 1 204 Kbps\r\nWidth                                    : 720 pixels\r\nHeight                                   : 404 pixels\r\nDisplay aspect ratio                     : 16:9\r\nFrame rate mode                          : Constant\r\nFrame rate                               : 29.970 fps\r\nColor space                              : YUV\r\nChroma subsampling                       : 4:2:0\r\nBit depth                                : 8 bits\r\nScan type                                : Progressive\r\nBits/(Pixel*Frame)                       : 0.138\r\nStream size                              : 1.14 GiB (90%)\r\n\r\nAudio\r\nID                                       : 2\r\nFormat                                   : AAC\r\nFormat/Info                              : Advanced Audio Codec\r\nFormat profile                           : LC\r\nCodec ID                                 : 40\r\nDuration                                 : 2h 16mn\r\nBit rate mode                            : Constant\r\nBit rate                                 : 128 Kbps\r\nChannel(s)                               : 2 channels\r\nChannel positions                        : Front: L R\r\nSampling rate                            : 44.1 KHz\r\nCompression mode                         : Lossy\r\nStream size                              : 125 MiB (10%)","torrent":{"xt":"urn:btih:c027fa30c147aed87ec949067dad968ece3d46a6","amp;dn":"Star+Wars%3AEpisode+I%3AThe+Phantom+Menace%281999%29MPEG-4%5BDaScubaDude%5D","amp;tr":["udp%3A%2F%2Ftracker.leechers-paradise.org%3A6969","udp%3A%2F%2Fzer0day.ch%3A1337","udp%3A%2F%2Fopen.demonii.com%3A1337","udp%3A%2F%2Ftracker.coppersurfer.tk%3A6969","udp%3A%2F%2Fexodus.desync.com%3A6969"],"infoHash":"c027fa30c147aed87ec949067dad968ece3d46a6","infoHashBuffer":{"type":"Buffer","data":[192,39,250,48,193,71,174,216,126,201,73,6,125,173,150,142,206,61,70,166]},"announce":[],"urlList":[]}}